Coordinates
version=1
nRows=14
nColumns=36
inDegrees=yes

Units are S.I. units (second, meters, Newtons, ...)
If the header above contains a line with 'inDegrees', this indicates whether rotational values are in degrees (yes) or radians (no).

endheader
time	pelvis_tilt	pelvis_list	pelvis_rotation	pelvis_tx	pelvis_ty	pelvis_tz	hip_flexion_r	hip_adduction_r	hip_rotation_r	knee_angle_r	knee_angle_r_beta	ankle_angle_r	subtalar_angle_r	mtp_angle_r	hip_flexion_l	hip_adduction_l	hip_rotation_l	knee_angle_l	knee_angle_l_beta	ankle_angle_l	subtalar_angle_l	mtp_angle_l	lumbar_extension	lumbar_bending	lumbar_rotation	arm_flex_r	arm_add_r	arm_rot_r	elbow_flex_r	pro_sup_r	arm_flex_l	arm_add_l	arm_rot_l	elbow_flex_l	pro_sup_l
      0.00000000	     -0.99299843	      0.64177478	      7.70820701	     -0.94652964	      1.31534632	     -0.06595830	     -1.90976216	     -1.19933343	     -2.49778695	      4.33788009	      0.07571029	      7.64107372	     -7.99160270	     -6.88595421	      0.59175298	     -0.84348823	      4.00352798	      4.13000610	      0.07208220	      5.59415758	      0.52730852	     -6.88595421	     -1.26512757	      0.86073016	      4.52693111	    -13.39639799	    -24.51860485	     19.77172834	    127.90848436	    104.82476296	    -17.08934517	    -23.57506767	     18.55639460	    133.60800963	    100.38848598
      0.00416670	     -2.34116327	      0.15249561	      9.33765152	     -0.94093132	      1.31226215	     -0.07188027	     -1.97725156	     -0.62928153	     -3.71065803	      2.44676648	      0.04270413	      8.57095430	     -3.91594398	     -6.90692167	      1.37615966	     -0.98022915	      5.89698151	      2.45175046	      0.04279112	      3.60051668	      1.95445376	     -6.90692167	      1.57912554	      1.29208739	      3.34015110	    -17.07661692	    -25.74464140	     18.33871341	    129.81646819	    103.65888654	    -16.96595480	    -25.16424450	     21.57231605	    135.41077136	     99.92278544
      0.00833330	     -2.87537925	      0.16494798	      9.54078907	     -0.94232147	      1.31053856	     -0.07101342	     -1.90312021	     -0.57909027	     -4.05024768	      1.53330932	      0.02676130	      8.88170302	     -3.99892557	     -7.08346583	      1.63146675	     -0.78605765	      5.59733134	      1.81231944	      0.03163094	      3.43069597	      3.26264406	     -7.08346583	      2.25008860	      1.14417369	      5.45062728	    -23.11246632	    -25.65038365	     14.08698488	    131.76811559	     99.25680328	    -13.26101203	    -27.30452878	     26.66638609	    136.52093187	     95.27745537
      0.01250000	     -2.86936792	      0.16218724	      9.98622442	     -0.94260219	      1.30710910	     -0.07103231	     -2.09738418	     -0.54353261	     -4.32438523	      1.25430800	      0.02189180	      9.46338258	     -4.14333667	     -7.24972155	      1.30286416	     -0.67191157	      6.12687793	      1.10532439	      0.01929155	      3.36190137	      3.64505572	     -7.24972155	      2.21366668	      0.98868072	      5.73884641	    -26.07083320	    -25.98915091	     12.92534524	    132.33385550	     97.31697679	    -13.12262642	    -27.75355288	     27.75719393	    137.02779489	     92.76544804
      0.01666670	     -3.02166864	      0.04477453	     10.25970884	     -0.94353662	      1.30405757	     -0.07099560	     -1.97766566	     -0.40973462	     -4.24315384	      1.20098059	      0.02096107	      9.80346295	     -5.01699215	     -7.41706317	      1.34080901	     -0.70828197	      6.61768211	      0.81543960	      0.01423211	      3.71686937	      3.75086844	     -7.41706317	      2.22068777	      1.02843977	      6.39126877	    -28.45720774	    -26.01894257	     11.02738770	    133.07087121	     96.61211750	    -12.47656236	    -28.06661319	     28.81610081	    137.54856150	     92.30427520
      0.02083330	     -3.17957590	     -0.01932252	     10.43975109	     -0.94330861	      1.30467779	     -0.07136202	     -1.80463246	     -0.32474120	     -4.37999584	      1.17291436	      0.02047122	      9.95725182	     -5.62058582	     -7.48153522	      1.44597368	     -0.72146079	      7.10076389	      0.66977359	      0.01168975	      3.92049404	      3.80190177	     -7.48153522	      2.24878393	      0.97172797	      6.73520065	    -30.48353979	    -26.24931406	      9.54387997	    133.31466691	     95.50440475	    -12.09891193	    -28.23096049	     29.51206111	    137.16121145	     91.56939167
      0.02500000	     -3.30756368	      0.00518675	     10.56696484	     -0.95014222	      1.30521043	     -0.07535490	     -1.48708235	     -0.48568906	     -4.49445218	      1.25420316	      0.02188997	     10.09020588	     -5.86181757	     -7.48163540	      1.63489032	     -0.55113370	      7.46606371	      0.61354214	      0.01070833	      4.09296026	      3.83850366	     -7.48163540	      2.05148738	      1.00076798	      6.55469377	    -30.65213937	    -27.07105410	      9.12049883	    133.25754875	     95.43996852	    -12.16257470	    -27.89283047	     29.96048921	    137.01797017	     91.58193771
      0.02916670	     -3.53801470	     -0.00614884	     10.57651920	     -0.94963376	      1.30539865	     -0.07552886	     -1.11585964	     -0.62564140	     -4.25031883	      1.30194877	      0.02272329	      9.77450249	     -6.58743362	     -7.49133958	      1.90302493	     -0.42049186	      8.07580896	      0.59724910	      0.01042396	      3.91514054	      3.23471016	     -7.49133958	      2.20164168	      1.08498371	      6.72187220	    -30.86899428	    -27.38780960	      8.06638857	    133.08136150	     87.04322519	    -11.59119690	    -27.84536646	     31.69999554	    136.18969219	     84.61947602
      0.03333330	     -3.76312959	     -0.04417166	     10.66278462	     -0.95009719	      1.30532044	     -0.07527468	     -0.80877485	     -0.66322109	     -4.23695397	      1.19183469	      0.02080144	      9.60906326	     -6.42271143	     -7.49646717	      2.19997055	     -0.34611884	      8.49628822	      0.60640670	      0.01058379	      3.71439417	      3.03929304	     -7.49646717	      2.22596918	      1.30697987	      7.38043499	    -32.24546044	    -27.46206489	      6.90223816	    133.58334118	     91.98641548	    -10.89220001	    -28.09108648	     32.04563925	    135.47673156	     89.87237526
      0.03750000	     -3.86385509	     -0.00597123	     10.60553160	     -0.94961766	      1.30541251	     -0.07541805	     -0.69436028	     -0.76039818	     -4.17328440	      1.07310989	      0.01872930	      9.48522132	     -6.11918170	     -7.49888377	      2.29247697	     -0.25926454	      8.78767675	      0.60818015	      0.01061475	      3.53211108	      2.93927477	     -7.49888377	      2.26370342	      1.18943159	      7.57484892	    -32.61070846	    -27.84538782	      7.74276284	    133.83458439	     91.68319421	    -11.08556027	    -28.20369750	     31.53840273	    135.67738822	     89.24036763
      0.04166670	     -3.93747052	      0.03601144	     10.54881689	     -0.95013766	      1.30544699	     -0.07500322	     -0.59706391	     -0.81781033	     -4.08094667	      0.97935888	      0.01709304	      9.35345343	     -5.91686953	     -7.49957767	      2.40617228	     -0.20274254	      9.04768671	      0.59334599	      0.01035584	      3.32560920	      2.78006019	     -7.49957767	      2.31349987	      1.14714408	      8.04856421	    -33.30378895	    -28.09726323	      7.82801802	    134.06908737	     91.20737778	    -10.81774216	    -28.71782004	     31.70928696	    135.50164334	     88.83464916
      0.04583330	     -4.05267731	      0.09081117	     10.49204057	     -0.94951040	      1.30542597	     -0.07496288	     -0.48423552	     -0.90175977	     -3.79237494	      0.90630321	      0.01581798	      9.12994241	     -6.07070627	     -7.49989947	      2.54772694	     -0.14684262	      9.35891606	      0.58411900	      0.01019480	      3.19079398	      2.50098839	     -7.49989947	      2.40720899	      1.19677503	      8.24565790	    -33.98098077	    -28.39645383	      8.01139215	    134.30198694	     91.29943611	    -11.08140331	    -29.08057729	     31.46920258	    135.21618678	     88.91034699
      0.05000000	     -4.25179544	      0.15576074	     10.44791600	     -0.94990505	      1.30544358	     -0.07458054	     -0.28542001	     -1.01403430	     -3.76491867	      0.85932351	      0.01499802	      8.99571918	     -5.89521418	     -7.49996845	      2.71706062	     -0.08440987	      9.49832872	      0.58735415	      0.01025126	      2.97133350	      2.21030043	     -7.49996845	      2.48729135	      1.18429851	      8.47511193	    -34.69257181	    -28.43975038	      8.03912158	    134.59436175	     91.47335499	    -11.30736086	    -29.51605435	     31.92668313	    135.16273328	     89.39338333
      0.05416670	     -4.29499155	      0.14402025	     10.50244752	     -0.94922592	      1.30553957	     -0.07482228	     -0.25609684	     -1.02417034	     -3.70937696	      0.86704055	      0.01513271	      8.62828861	     -6.15676525	     -7.49999347	      2.78685773	     -0.15062614	      9.74970519	      0.57755822	      0.01008029	      2.67094060	      1.88746544	     -7.49999347	      2.38589585	      1.23285824	      8.82030449	    -35.50156568	    -28.24312276	      7.83242930	    134.52148879	     91.50803126	    -11.14153878	    -29.89971696	     32.82321452	    134.70550168	     89.76360099
